<?xml version="1.0" encoding="UTF-8"?>
<svg width="750px" height="300px" viewBox="0 0 750 300" version="1.1" xmlns="http://www.w3.org/2000/svg" xmlns:xlink="http://www.w3.org/1999/xlink">
    <!-- Generator: Sketch 51.2 (57519) - http://www.bohemiancoding.com/sketch -->
    <title>logo</title>
    <desc>Created with Sketch.</desc>
    <defs></defs>
    <g id="logo" stroke="none" stroke-width="1" fill="none" fill-rule="evenodd">
        <g id="Group-2" transform="translate(224.000000, 39.000000)">
            <g id="box" transform="translate(61.000000, 0.000000)">
                <polygon id="Fill-1" fill="#FED2A4" points="85.1972656 63.6328125 85.1972656 132.568359 10.9589844 132.568359 10.9589844 63.6328125 32.1699219 63.6328125 42.7753906 74.2382813 53.3808594 74.2382813 63.9863281 63.6328125"></polygon>
                <polygon id="Fill-2" fill="#FFBD86" points="85.1972656 63.6328125 85.1972656 132.568359 48.078125 132.568359 48.078125 74.2382813 53.3808594 74.2382813 63.9863281 63.6328125"></polygon>
                <polygon id="Fill-3" fill="#FF9F00" points="32.1699219 84.84375 63.9863281 84.84375 63.9863281 63.6328125 32.1699219 63.6328125"></polygon>
                <polygon id="Fill-4" fill="#FF7816" points="48.078125 84.84375 63.9863281 84.84375 63.9863281 63.6328125 48.078125 63.6328125"></polygon>
                <polygon id="Fill-5" fill="#FED2A4" points="170.041016 63.6328125 170.041016 132.568359 95.8027344 132.568359 95.8027344 63.6328125 117.013672 63.6328125 127.619141 74.2382813 138.224609 74.2382813 148.830078 63.6328125"></polygon>
                <polygon id="Fill-6" fill="#FFBD86" points="170.041016 63.6328125 170.041016 132.568359 132.921875 132.568359 132.921875 74.2382813 138.224609 74.2382813 148.830078 63.6328125"></polygon>
                <polygon id="Fill-7" fill="#FF9F00" points="117.013672 84.84375 148.830078 84.84375 148.830078 63.6328125 117.013672 63.6328125"></polygon>
                <g id="Group-14" transform="translate(53.380859, 0.000000)">
                    <polygon id="Fill-8" fill="#FF7816" points="79.5410156 84.84375 95.4492187 84.84375 95.4492187 63.6328125 79.5410156 63.6328125"></polygon>
                    <polygon id="Fill-10" fill="#FED2A4" points="74.2382812 0 74.2382812 63.6328125 0 63.6328125 0 0 21.2109375 0 31.8164062 10.6054687 42.421875 10.6054687 53.0273437 0"></polygon>
                    <polygon id="Fill-11" fill="#FFBD86" points="74.2382812 0 74.2382812 63.6328125 37.1191406 63.6328125 37.1191406 10.6054687 42.421875 10.6054687 53.0273437 0"></polygon>
                    <polygon id="Fill-12" fill="#FF9F00" points="21.2109375 21.2109375 53.0273437 21.2109375 53.0273437 0 21.2109375 0"></polygon>
                    <polygon id="Fill-13" fill="#FF7816" points="37.1191406 21.2109375 53.0273437 21.2109375 53.0273437 0 37.1191406 0"></polygon>
                </g>
                <polygon id="Fill-15" fill="#6D6D6D" points="21.5644531 153.779297 32.1699219 153.779297 32.1699219 132.568359 21.5644531 132.568359"></polygon>
                <polygon id="Fill-16" fill="#6D6D6D" points="63.9863281 153.779297 74.5917969 153.779297 74.5917969 132.568359 63.9863281 132.568359"></polygon>
                <polygon id="Fill-17" fill="#565656" points="106.408203 153.779297 117.013672 153.779297 117.013672 132.568359 106.408203 132.568359"></polygon>
                <g id="Group-24" transform="translate(0.000000, 127.265625)">
                    <polygon id="Fill-18" fill="#565656" points="148.830078 26.5136719 159.435547 26.5136719 159.435547 5.30273437 148.830078 5.30273437"></polygon>
                    <polygon id="Fill-20" fill="#818181" points="0.0212109375 10.6054687 181 10.6054687 181 0 0.0212109375 0"></polygon>
                    <polygon id="Fill-21" fill="#6D6D6D" points="90.5 10.6054687 181 10.6054687 181 0 90.5 0"></polygon>
                    <polygon id="Fill-22" fill="#818181" points="0.0212109375 31.7951953 181 31.7951953 181 21.2109375 0.0212109375 21.2109375"></polygon>
                    <polygon id="Fill-23" fill="#6D6D6D" points="90.5 31.7951953 181 31.7951953 181 21.2109375 90.5 21.2109375"></polygon>
                </g>
            </g>
            <g id="Group" transform="translate(0.000000, 186.000000)">
                <path d="M0,0.659179688 L13.2080078,0.659179688 C20.0439453,0.659179688 24.8046875,5.37109375 24.8046875,12.2314453 C24.8046875,19.1162109 19.9462891,23.8525391 13.0371094,23.8525391 L5.46875,23.8525391 L5.46875,35.8886719 L0,35.8886719 L0,0.659179688 Z M5.46875,5.2734375 L5.46875,19.2626953 L11.7431641,19.2626953 C16.5039062,19.2626953 19.2138672,16.6992188 19.2138672,12.2558594 C19.2138672,7.8125 16.5039062,5.2734375 11.7675781,5.2734375 L5.46875,5.2734375 Z M39.6972656,13.9892578 C36.0107422,13.9892578 33.4228516,16.796875 33.1542969,20.6787109 L45.9960938,20.6787109 C45.8740234,16.7480469 43.3837891,13.9892578 39.6972656,13.9892578 Z M45.9716797,28.3447266 L50.9765625,28.3447266 C50.2441406,33.0322266 45.8007812,36.3769531 39.9169922,36.3769531 C32.3730469,36.3769531 27.8076172,31.2744141 27.8076172,23.1689453 C27.8076172,15.1123047 32.4462891,9.74121094 39.6972656,9.74121094 C46.8261719,9.74121094 51.2695312,14.7705078 51.2695312,22.5585938 L51.2695312,24.3652344 L33.1298828,24.3652344 L33.1298828,24.6826172 C33.1298828,29.1503906 35.8154297,32.1044922 40.0390625,32.1044922 C43.0419922,32.1044922 45.2636719,30.5908203 45.9716797,28.3447266 Z M55.3466797,35.8886719 L55.3466797,10.2050781 L60.3759766,10.2050781 L60.3759766,14.5751953 L60.4980469,14.5751953 C61.3525391,11.5722656 63.6474609,9.79003906 66.6748047,9.79003906 C67.4316406,9.79003906 68.0908203,9.91210938 68.4814453,9.98535156 L68.4814453,14.8925781 C68.0664062,14.7216797 67.1386719,14.5996094 66.1132812,14.5996094 C62.7197266,14.5996094 60.6201172,16.8701172 60.6201172,20.5078125 L60.6201172,35.8886719 L55.3466797,35.8886719 Z M71.2890625,17.4804688 C71.2890625,12.890625 75.2929688,9.74121094 81.2011719,9.74121094 C87.1826172,9.74121094 91.0644531,13.0615234 91.2353516,17.7978516 L86.2792969,17.7978516 C85.9863281,15.3076172 84.1552734,13.7451172 81.2011719,13.7451172 C78.3447266,13.7451172 76.4404297,15.1367188 76.4404297,17.1875 C76.4404297,18.7988281 77.6123047,19.8974609 80.3955078,20.5322266 L84.5703125,21.484375 C89.8193359,22.7050781 91.8212891,24.7558594 91.8212891,28.4667969 C91.8212891,33.1542969 87.4511719,36.3769531 81.3964844,36.3769531 C74.9755859,36.3769531 71.1181641,33.2275391 70.6298828,28.3447266 L75.8544922,28.3447266 C76.3427734,31.0302734 78.1738281,32.3486328 81.3964844,32.3486328 C84.5703125,32.3486328 86.5234375,31.0302734 86.5234375,28.9306641 C86.5234375,27.2705078 85.5712891,26.2939453 82.7636719,25.6591797 L78.5888672,24.6826172 C73.7060547,23.5595703 71.2890625,21.2158203 71.2890625,17.4804688 Z M96.0693359,35.8886719 L96.0693359,10.2050781 L101.342773,10.2050781 L101.342773,35.8886719 L96.0693359,35.8886719 Z M98.7060547,6.0546875 C97.0214844,6.0546875 95.6542969,4.6875 95.6542969,3.02734375 C95.6542969,1.34277344 97.0214844,0 98.7060547,0 C100.390625,0 101.733398,1.34277344 101.733398,3.02734375 C101.733398,4.6875 100.390625,6.0546875 98.7060547,6.0546875 Z M106.274414,17.4804688 C106.274414,12.890625 110.27832,9.74121094 116.186523,9.74121094 C122.167969,9.74121094 126.049805,13.0615234 126.220703,17.7978516 L121.264648,17.7978516 C120.97168,15.3076172 119.140625,13.7451172 116.186523,13.7451172 C113.330078,13.7451172 111.425781,15.1367188 111.425781,17.1875 C111.425781,18.7988281 112.597656,19.8974609 115.380859,20.5322266 L119.555664,21.484375 C124.804688,22.7050781 126.806641,24.7558594 126.806641,28.4667969 C126.806641,33.1542969 122.436523,36.3769531 116.381836,36.3769531 C109.960938,36.3769531 106.103516,33.2275391 105.615234,28.3447266 L110.839844,28.3447266 C111.328125,31.0302734 113.15918,32.3486328 116.381836,32.3486328 C119.555664,32.3486328 121.508789,31.0302734 121.508789,28.9306641 C121.508789,27.2705078 120.556641,26.2939453 117.749023,25.6591797 L113.574219,24.6826172 C108.691406,23.5595703 106.274414,21.2158203 106.274414,17.4804688 Z M132.421875,4.12597656 L137.719727,4.12597656 L137.719727,10.2050781 L142.602539,10.2050781 L142.602539,14.3798828 L137.719727,14.3798828 L137.719727,28.5400391 C137.719727,30.7617188 138.696289,31.7626953 140.844727,31.7626953 C141.381836,31.7626953 142.236328,31.7138672 142.578125,31.640625 L142.578125,35.8154297 C141.992188,35.9619141 140.820312,36.0595703 139.648438,36.0595703 C134.448242,36.0595703 132.421875,34.0820312 132.421875,29.1259766 L132.421875,14.3798828 L128.686523,14.3798828 L128.686523,10.2050781 L132.421875,10.2050781 L132.421875,4.12597656 Z M157.666016,13.9892578 C153.979492,13.9892578 151.391602,16.796875 151.123047,20.6787109 L163.964844,20.6787109 C163.842773,16.7480469 161.352539,13.9892578 157.666016,13.9892578 Z M163.94043,28.3447266 L168.945312,28.3447266 C168.212891,33.0322266 163.769531,36.3769531 157.885742,36.3769531 C150.341797,36.3769531 145.776367,31.2744141 145.776367,23.1689453 C145.776367,15.1123047 150.415039,9.74121094 157.666016,9.74121094 C164.794922,9.74121094 169.238281,14.7705078 169.238281,22.5585938 L169.238281,24.3652344 L151.098633,24.3652344 L151.098633,24.6826172 C151.098633,29.1503906 153.78418,32.1044922 158.007812,32.1044922 C161.010742,32.1044922 163.232422,30.5908203 163.94043,28.3447266 Z M173.31543,35.8886719 L173.31543,10.2050781 L178.344727,10.2050781 L178.344727,14.5019531 L178.466797,14.5019531 C179.858398,11.5722656 182.592773,9.765625 186.547852,9.765625 C192.211914,9.765625 195.458984,13.3789062 195.458984,19.2626953 L195.458984,35.8886719 L190.161133,35.8886719 L190.161133,20.2880859 C190.161133,16.4306641 188.354492,14.3066406 184.692383,14.3066406 C180.981445,14.3066406 178.588867,16.9433594 178.588867,20.9228516 L178.588867,35.8886719 L173.31543,35.8886719 Z M222.583008,19.0429688 L217.553711,19.0429688 C217.016602,16.3085938 214.96582,14.1357422 211.523438,14.1357422 C207.446289,14.1357422 204.760742,17.5292969 204.760742,23.046875 C204.760742,28.6865234 207.470703,31.9580078 211.572266,31.9580078 C214.819336,31.9580078 216.943359,30.1757812 217.553711,27.1972656 L222.631836,27.1972656 C222.070312,32.6660156 217.700195,36.3769531 211.523438,36.3769531 C204.174805,36.3769531 199.389648,31.3476562 199.389648,23.046875 C199.389648,14.8925781 204.174805,9.74121094 211.474609,9.74121094 C218.09082,9.74121094 222.119141,13.9892578 222.583008,19.0429688 Z M237.109375,13.9892578 C233.422852,13.9892578 230.834961,16.796875 230.566406,20.6787109 L243.408203,20.6787109 C243.286133,16.7480469 240.795898,13.9892578 237.109375,13.9892578 Z M243.383789,28.3447266 L248.388672,28.3447266 C247.65625,33.0322266 243.212891,36.3769531 237.329102,36.3769531 C229.785156,36.3769531 225.219727,31.2744141 225.219727,23.1689453 C225.219727,15.1123047 229.858398,9.74121094 237.109375,9.74121094 C244.238281,9.74121094 248.681641,14.7705078 248.681641,22.5585938 L248.681641,24.3652344 L230.541992,24.3652344 L230.541992,24.6826172 C230.541992,29.1503906 233.227539,32.1044922 237.451172,32.1044922 C240.454102,32.1044922 242.675781,30.5908203 243.383789,28.3447266 Z" id="PersistenceKit" fill="#FF7816"></path>
                <path d="M256.762695,35.8886719 L253.442383,35.8886719 L253.442383,0.659179688 L256.762695,0.659179688 L256.762695,18.9208984 L256.958008,18.9208984 L273.706055,0.659179688 L277.929688,0.659179688 L263.452148,16.2353516 L279.370117,35.8886719 L275.097656,35.8886719 L261.108398,18.6035156 L256.762695,23.3154297 L256.762695,35.8886719 Z M282.666016,35.8886719 L282.666016,10.4980469 L285.888672,10.4980469 L285.888672,35.8886719 L282.666016,35.8886719 Z M284.277344,5.22460938 C283.081055,5.22460938 282.104492,4.27246094 282.104492,3.07617188 C282.104492,1.87988281 283.081055,0.927734375 284.277344,0.927734375 C285.473633,0.927734375 286.450195,1.87988281 286.450195,3.07617188 C286.450195,4.27246094 285.473633,5.22460938 284.277344,5.22460938 Z M293.066406,4.15039062 L296.289062,4.15039062 L296.289062,10.4980469 L301.293945,10.4980469 L301.293945,13.1835938 L296.289062,13.1835938 L296.289062,29.4921875 C296.289062,32.1044922 297.314453,33.2275391 299.658203,33.2275391 C300,33.2275391 301.220703,33.1787109 301.416016,33.1298828 L301.416016,35.8886719 C301.074219,35.9619141 299.707031,36.0351562 299.023438,36.0351562 C294.775391,36.0351562 293.066406,34.2285156 293.066406,29.6386719 L293.066406,13.1835938 L289.282227,13.1835938 L289.282227,10.4980469 L293.066406,10.4980469 L293.066406,4.15039062 Z" id="Combined-Shape" fill="#6D6D6D"></path>
            </g>
        </g>
    </g>
</svg>